<?xml version="1.0" encoding="utf-8"?>
<!-- Generator: Adobe Illustrator 15.1.0, SVG Export Plug-In . SVG Version: 6.00 Build 0)  -->
<!DOCTYPE svg PUBLIC "-//W3C//DTD SVG 1.1//EN" "http://www.w3.org/Graphics/SVG/1.1/DTD/svg11.dtd">
<svg version="1.1" id="Layer_1" xmlns="http://www.w3.org/2000/svg" xmlns:xlink="http://www.w3.org/1999/xlink" x="0px" y="0px"
	 width="636.493px" height="88.457px" viewBox="0 0 636.493 88.457" enable-background="new 0 0 636.493 88.457"
	 xml:space="preserve">
<path fill="#444444" d="M98.857,22.481c-4.16-2.601-8.423-3.847-13.016-3.847h-28.69v50.63h7.115h5.839
	c0.833,0,1.508-0.675,1.508-1.509V39.411c0-2.372,0.734-4.309,2.204-5.773c1.788-1.787,4.683-2.818,7.958-2.818
	c2.678,0,4.387,0.514,7.119,2.157c0.502,0.297,1.157,0.236,1.591-0.182l8.58-8.234c0.302-0.276,0.446-0.687,0.407-1.098
	C99.427,23.054,99.208,22.694,98.857,22.481"/>
<path fill="#444444" d="M414.085,22.481c-4.16-2.601-8.423-3.847-13.017-3.847h-28.689v50.63h7.115h5.855
	c0.833,0,1.508-0.675,1.508-1.509l-0.017-28.344c0-2.372,0.734-4.309,2.204-5.773c1.788-1.787,4.683-2.818,7.958-2.818
	c2.678,0,4.387,0.514,7.119,2.157c0.502,0.297,1.156,0.236,1.591-0.182l8.58-8.234c0.302-0.276,0.447-0.687,0.407-1.098
	C414.655,23.054,414.436,22.694,414.085,22.481"/>
<path fill="#444444" d="M239.181,18.634c-7.69,0-13.822,2.008-18.438,6.416c-5.02,4.716-7.121,9.327-7.121,19.148
	c0,22.322,17.243,25.634,27.501,25.634c8.874,0,16.528-2.764,22.144-8.033c0.318-0.27,0.454-0.655,0.414-1.052
	c-0.007-0.418-0.231-0.796-0.561-1.024l-8.605-5.868c-0.503-0.344-1.139-0.306-1.599,0.068c-2.806,2.344-6.74,3.886-10.581,4.206
	c-0.546,0.076-1.1,0.128-1.668,0.128h-0.946c-0.441,0-0.874-0.029-1.302-0.076c-0.117-0.012-0.231-0.033-0.347-0.049
	c-0.318-0.044-0.634-0.098-0.943-0.166c-0.112-0.024-0.223-0.052-0.334-0.08c-0.326-0.082-0.646-0.176-0.959-0.283
	c-0.078-0.027-0.156-0.052-0.232-0.08c-0.388-0.142-0.767-0.299-1.133-0.477c-0.071-0.029-0.132-0.067-0.202-0.098
	c-3.077-1.579-5.283-4.448-5.783-7.808h23.416h3.783h6.136h0.757h0.724c0.833,0,1.508-0.675,1.508-1.508v-0.599v-0.794v-6.257
	C264.798,27.805,253.776,18.634,239.181,18.634 M228.617,38.62c1.091-4.766,5.666-8.37,11.104-8.37h0.946
	c5.439,0,10.013,3.604,11.104,8.37H228.617z"/>
<path fill="#444444" d="M339.738,18.634c-7.689,0-13.821,2.008-18.438,6.416c-5.02,4.716-7.121,9.327-7.121,19.148
	c0,22.322,17.243,25.634,27.501,25.634c8.874,0,16.528-2.764,22.144-8.033c0.318-0.27,0.454-0.655,0.414-1.052
	c-0.007-0.418-0.23-0.796-0.561-1.024l-8.605-5.868c-0.503-0.344-1.139-0.306-1.599,0.068c-2.806,2.344-6.74,3.886-10.581,4.206
	c-0.546,0.076-1.1,0.128-1.668,0.128h-0.946c-0.44,0-0.874-0.029-1.302-0.076c-0.117-0.012-0.23-0.033-0.347-0.049
	c-0.318-0.044-0.634-0.098-0.943-0.166c-0.112-0.024-0.223-0.052-0.334-0.08c-0.326-0.082-0.646-0.176-0.959-0.283
	c-0.078-0.027-0.156-0.052-0.231-0.08c-0.389-0.142-0.768-0.299-1.134-0.477c-0.07-0.029-0.132-0.067-0.202-0.098
	c-3.076-1.579-5.282-4.448-5.782-7.808h23.416h3.782h6.137h0.757h0.724c0.833,0,1.508-0.675,1.508-1.508v-0.599v-0.794v-6.257
	C365.355,27.805,354.333,18.634,339.738,18.634 M329.174,38.62c1.091-4.766,5.666-8.37,11.104-8.37h0.946
	c5.439,0,10.013,3.604,11.104,8.37H329.174z"/>
<path fill="#444444" d="M500.291,18.634c-7.689,0-13.821,2.008-18.438,6.416c-5.02,4.716-7.121,9.327-7.121,19.148
	c0,22.322,17.243,25.634,27.501,25.634c8.874,0,16.528-2.764,22.145-8.033c0.317-0.27,0.453-0.655,0.413-1.052
	c-0.007-0.418-0.23-0.796-0.561-1.024l-8.605-5.868c-0.503-0.344-1.139-0.306-1.599,0.068c-2.806,2.344-6.74,3.886-10.581,4.206
	c-0.546,0.076-1.1,0.128-1.668,0.128h-0.946c-0.44,0-0.874-0.029-1.302-0.076c-0.117-0.012-0.23-0.033-0.347-0.049
	c-0.318-0.044-0.634-0.098-0.943-0.166c-0.111-0.024-0.223-0.052-0.334-0.08c-0.326-0.082-0.646-0.176-0.959-0.283
	c-0.078-0.027-0.155-0.052-0.231-0.08c-0.389-0.142-0.768-0.299-1.134-0.477c-0.07-0.029-0.132-0.067-0.201-0.098
	c-3.077-1.579-5.283-4.448-5.783-7.808h23.416h3.783h6.136h0.757h0.724c0.833,0,1.509-0.675,1.509-1.508v-0.599v-0.794v-6.257
	C525.908,27.805,514.886,18.634,500.291,18.634 M489.727,38.62c1.091-4.766,5.666-8.37,11.104-8.37h0.946
	c5.439,0,10.014,3.604,11.104,8.37H489.727z"/>
<path fill="#444444" d="M283.561,0.005h-12.972v67.751c0,0.833,0.675,1.508,1.508,1.508h12.972V1.513
	C285.069,0.68,284.394,0.005,283.561,0.005"/>
<path fill="#444444" d="M305.677,0.005h-12.972v67.751c0,0.833,0.675,1.508,1.508,1.508h12.972V1.513
	C307.185,0.68,306.51,0.005,305.677,0.005"/>
<path fill="#444444" d="M448.494,18.653c-0.029,0-0.039-0.019-0.039-0.019h-15.229V1.508c0-0.833-0.675-1.508-1.507-1.508h-0.223
	h-11.02h-1.729v69.264h14.56V39.687c-0.021-2.451,0.762-4.457,2.302-5.987c1.84-1.849,4.727-2.88,8.097-2.88
	c6.237,0,10.271,3.478,10.305,8.867v29.577h12.968c0.833,0,1.508-0.675,1.508-1.508v-0.223V36.418
	C468.486,25.417,458.184,19.062,448.494,18.653"/>
<path fill="#444444" d="M45.338,25.192c-2.846-2.978-8.072-6.558-16.771-6.558H0v69.822h12.972c0.833,0,1.508-0.676,1.508-1.509
	V69.263l14.303-0.054c8.699,0,13.918-3.58,16.757-6.588c3.602-3.764,4.532-7.446,4.532-18.676v-0.288
	C50.051,31.983,49.055,29.039,45.338,25.192 M36.191,47.563c0,5.577-4.908,10.141-10.906,10.141h-0.908
	c-5.998,0-10.906-4.563-10.906-10.141v-6.619c0-5.577,4.908-10.14,10.906-10.14h0.908c5.998,0,10.906,4.563,10.906,10.14V47.563z"/>
<path fill="#444444" d="M203.188,25.192c-2.846-2.978-8.072-6.558-16.771-6.558h-28.567v69.822h12.972
	c0.833,0,1.508-0.675,1.508-1.508V69.263l14.303-0.054c8.699,0,13.917-3.58,16.757-6.588c3.602-3.764,4.532-7.446,4.532-18.676
	v-0.288C207.901,31.983,206.906,29.04,203.188,25.192 M194.042,47.563c0,5.577-4.908,10.141-10.906,10.141h-0.908
	c-5.998,0-10.906-4.563-10.906-10.141v-6.619c0-5.577,4.908-10.141,10.906-10.141h0.908c5.998,0,10.906,4.564,10.906,10.141V47.563z
	"/>
<path fill="#444444" d="M581.177,67.534l-0.001-31.959c-0.026-11.242-8.737-16.94-25.845-16.94c-9.869,0-16.282,2.251-20.861,7.35
	c-0.264,0.307-0.378,0.692-0.332,1.085c0.066,0.399,0.283,0.736,0.617,0.928l9.311,5.721c0.588,0.351,1.328,0.21,1.739-0.329
	c1.564-2.043,3.649-3.137,10.092-3.137c9.932,0,10.786,2.353,10.786,4.768v3.629h-15.061c-14.146,0-20.499,7.715-20.499,15.362
	c0,14.678,20.014,15.253,20.014,15.253h26.72h1.374h0.439c0.833,0,1.508-0.675,1.508-1.508L581.177,67.534L581.177,67.534
	L581.177,67.534z M566.691,51.312c0,2.58,0.059,4.321-0.871,5.265c-1.553,1.535-5.374,1.62-11.041,1.62
	c-6.154,0-9.81-1.731-9.81-4.647v-0.038c0-0.916,0.282-1.668,0.925-2.288c0.919-0.956,3.056-2.082,7.956-2.082h12.841V51.312z"/>
<path fill="#444444" d="M636.491,1.508c0-0.833-0.676-1.508-1.508-1.508h-12.97v18.634h-13.896c-8.692,0-13.911,3.58-16.758,6.588
	c-3.62,3.749-4.518,7.465-4.518,18.821v0.155c0.026,11.667,0.867,15.252,4.578,19.052c5.509,6.013,14.445,6.013,14.445,6.013h16.148
	h11.53h1.442c0.831,0,1.507-0.675,1.507-1.508L636.491,1.508z M622.815,47.563c0,5.577-4.907,10.141-10.905,10.141h-0.908
	c-5.998,0-10.906-4.563-10.906-10.141v-6.619c0-5.577,4.908-10.14,10.906-10.14h0.908c5.998,0,10.905,4.563,10.905,10.14V47.563z"/>
<path fill="#444444" d="M121.13,18.634c-12.126,0-21.956,9.83-21.956,21.955v28.674h0.012h28.663
	c12.125,0,21.955-9.829,21.955-21.955V18.634H121.13z M124.49,58.668c-8.129,0-14.719-6.59-14.719-14.719
	c0-8.13,6.59-14.72,14.719-14.72c8.129,0,14.719,6.59,14.719,14.72C139.208,52.079,132.619,58.668,124.49,58.668"/>
<path fill="#FF3333" d="M133.038,43.949c0,4.721-3.827,8.548-8.548,8.548s-8.548-3.827-8.548-8.548s3.827-8.548,8.548-8.548
	S133.038,39.228,133.038,43.949"/>
</svg>
